# xmcd
#
# Track frame offsets:
#	150
#	16472
#	29208
#	43079
#	59461
#	75978
#	89716
#	114967
#	130161
#	147881
#	158610
#	175662
#	191935
#	205242
#	220270
#
# Disc length: 3196 seconds
#
# Revision: 1
# Processed by: cddbd v1.5.2PL0 Copyright (c) Steve Scherf et al.
# Submitted via: EZCDAudioConverter 2.1.7.1
#
DISCID=d50c7a0f
DTITLE=V/A - Harrison Covered
DYEAR=2011
DGENRE=MOJO
TTITLE0=Show Of Hands - If I Needed Someone
TTITLE1=Webb Sisters - I Need You
TTITLE2=Ron Sexsmith - Give Me Love
TTITLE3=Richie Havens - Here Comes The Sun
TTITLE4=Alessi's Ark - The Ballad Of Sir Frankie Crisp (Let It Roll)
TTITLE5=Lanterns On The Lake - Long Long Long
TTITLE6=Jonathan Wilson featuring Graham Nash - Isn't It A Pity
TTITLE7=Emmy The Great - All Those Years Ago
TTITLE8=Hurray For The Riff Raff - My Sweet Lord
TTITLE9=Peter Bruntnell - Think For Yourself
TTITLE10=Iain Matthews - So Sad
TTITLE11=Joe Brown - That's The Way It Goes
TTITLE12=Trevor Moss and Hannah Lou - Your Love Is Forever
TTITLE13=Felice Brothers - Behind That Locked Door
TTITLE14=Yim Yames - Love You To
EXTD=
EXTT0=
EXTT1=
EXTT2=
EXTT3=
EXTT4=
EXTT5=
EXTT6=
EXTT7=
EXTT8=
EXTT9=
EXTT10=
EXTT11=
EXTT12=
EXTT13=
EXTT14=
PLAYORDER=
